<?xml version="1.0" encoding="UTF-8" standalone="no"?>
<!DOCTYPE svg PUBLIC "-//W3C//DTD SVG 1.1//EN" "http://www.w3.org/Graphics/SVG/1.1/DTD/svg11.dtd">
<svg width="411.43" height="411.43" viewBox="0.00 0.00 2000.00 2000.00" xmlns="http://www.w3.org/2000/svg" xmlns:xlink="http://www.w3.org/1999/xlink">
<g stroke-linecap="round" id="Layer_2">
<path d="M631.97,552.51 C609.95,552.58 555.76,552.77 523.60,552.88 C482.23,553.02 401.68,553.30 362.51,553.43 C332.70,553.53 287.68,553.69 272.46,553.74" fill="none" stroke="rgb(182, 141, 76)" stroke-width="40.99" stroke-opacity="1.00" stroke-linejoin="round"/>
<path d="M1491.38,552.99 C1491.38,552.99 1490.84,552.72 1490.84,552.72 C1517.03,552.99 1583.54,553.67 1623.86,554.09 C1657.58,554.44 1702.52,554.90 1713.73,555.01" fill="none" stroke="rgb(182, 141, 76)" stroke-width="33.54" stroke-opacity="1.00" stroke-linejoin="round"/>
<path d="M1713.73,555.05" fill="none" stroke="rgb(182, 141, 76)" stroke-width="33.54" stroke-opacity="1.00" stroke-linejoin="round"/>
<path d="M352.01,551.81 C352.01,551.81 353.00,552.17 353.00,552.17 C360.55,571.04 376.83,611.75 385.56,633.59 C395.48,658.40 416.51,710.98 427.62,738.76 C439.92,769.51 465.69,833.97 479.18,867.68 C493.85,904.36 524.37,980.70 540.23,1020.35 C556.66,1061.43 588.43,1140.87 603.76,1179.22 C617.91,1214.61 645.03,1282.41 657.99,1314.82 C669.77,1344.27 692.13,1400.19 702.72,1426.67 C712.12,1450.18 729.74,1494.23 737.95,1514.77 C741.61,1523.93 745.71,1534.18 746.15,1535.28 C746.15,1535.28 746.89,1536.51 746.89,1536.51 C755.67,1517.33 775.28,1474.51 786.10,1450.87 C798.96,1422.77 826.73,1362.12 841.64,1329.56 C858.58,1292.55 893.72,1215.81 911.91,1176.08 C928.35,1140.18 959.18,1072.84 973.58,1041.39 C985.93,1014.41 1008.59,964.91 1018.91,942.38 C1023.30,932.79 1029.69,918.83 1031.70,914.45 C1031.70,914.45 1031.70,914.74 1031.70,914.74" fill="none" stroke="rgb(182, 141, 76)" stroke-width="33.54" stroke-opacity="1.00" stroke-linejoin="round"/>
<path d="M851.03,1281.65 C843.25,1262.22 826.04,1219.30 816.61,1195.81 C805.56,1168.23 781.81,1109.01 769.12,1077.36 C754.80,1041.64 724.52,966.12 708.56,926.32 C692.50,886.27 662.02,810.24 647.59,774.26 C634.80,742.36 610.85,682.63 599.69,654.80 C590.17,631.05 572.76,587.62 564.87,567.94 C564.57,567.21 564.28,566.48 563.99,565.75 C563.80,565.04 563.61,564.33 563.43,563.61 C563.61,564.33 563.80,565.04 563.99,565.75" fill="none" stroke="rgb(182, 141, 76)" stroke-width="33.54" stroke-opacity="1.00" stroke-linejoin="round"/>
<path d="M851.35,1282.23" fill="none" stroke="rgb(182, 141, 76)" stroke-width="33.54" stroke-opacity="1.00" stroke-linejoin="round"/>
<path d="M1611.78,567.58 C1605.54,585.94 1591.72,626.56 1584.15,648.82 C1575.51,674.22 1557.16,728.17 1547.45,756.71 C1536.68,788.40 1514.05,854.92 1502.21,889.75 C1489.29,927.72 1462.39,1006.81 1448.41,1047.93 C1434.36,1089.24 1407.32,1168.72 1394.34,1206.88 C1382.43,1241.91 1359.68,1308.81 1348.83,1340.68 C1339.06,1369.42 1320.59,1423.74 1311.88,1449.33 C1304.25,1471.77 1290.05,1513.51 1283.49,1532.81 C1283.49,1532.81 1281.88,1532.07 1281.88,1532.07 C1274.21,1513.22 1257.64,1472.51 1248.74,1450.65 C1238.63,1425.79 1217.17,1373.05 1205.82,1345.18 C1193.26,1314.30 1166.90,1249.54 1153.11,1215.66 C1138.10,1178.76 1106.85,1101.97 1090.61,1062.07 C1074.02,1021.31 1042.04,942.71 1026.64,904.88 C1012.47,870.05 985.35,803.41 972.40,771.59 C960.68,742.78 938.45,688.17 927.95,662.36 C918.67,639.56 901.34,596.98 893.29,577.19 C891.46,572.71 889.20,567.14 888.76,566.05 C888.76,566.05 888.76,566.05 888.76,566.05" fill="none" stroke="rgb(182, 141, 76)" stroke-width="33.54" stroke-opacity="1.00" stroke-linejoin="round"/>
<path d="M1178.05,552.31 C1178.05,552.31 1100.02,552.71 1100.02,552.71 C1100.01,552.71 1040.16,552.71 980.31,552.71 C938.72,552.71 865.78,552.71 834.44,552.72 C823.03,552.72 809.20,552.72 806.79,552.72 C806.79,552.72 806.98,552.81 806.98,552.81" fill="none" stroke="rgb(182, 141, 76)" stroke-width="33.54" stroke-opacity="1.00" stroke-linejoin="round"/>
<path d="M1091.94,565.52 C1091.44,565.35 1091.32,565.20 1091.58,565.07 C1091.98,564.87 1097.21,563.47 1099.11,562.97 C1106.86,582.41 1124.06,625.51 1133.50,649.19 C1144.63,677.10 1168.59,737.15 1181.41,769.29 C1195.92,805.67 1226.55,882.46 1242.67,922.87 C1258.13,961.63 1287.37,1034.92 1301.14,1069.44 C1313.22,1099.73 1335.70,1156.08 1346.09,1182.13 C1354.79,1203.95 1367.65,1236.18 1371.80,1246.59 C1371.80,1246.59 1372.27,1246.72 1372.27,1246.72" fill="none" stroke="rgb(182, 141, 76)" stroke-width="33.54" stroke-opacity="1.00" stroke-linejoin="round"/>
</g>
<g stroke-linecap="round" id="Layer_1">
<path d="M982.29,32.24 C998.14,32.50 1030.01,33.76 1046.03,34.77 C1062.11,36.02 1094.17,39.25 1110.04,41.22 C1125.82,43.42 1149.54,47.19 1172.65,51.94 C1188.24,55.39 1219.45,63.07 1235.05,67.28 C1250.52,71.70 1281.04,81.20 1296.09,86.27 C1305.94,89.72 1340.52,103.52 1355.24,109.82 C1369.94,116.37 1399.10,130.17 1413.44,137.36 C1427.60,144.73 1452.34,158.27 1468.94,168.31 C1482.45,176.76 1509.23,194.41 1522.50,203.59 C1535.63,212.97 1561.26,232.17 1573.78,242.01 C1586.09,252.00 1609.92,273.00 1621.66,283.84 C1633.29,294.91 1656.15,317.69 1667.27,329.29 C1678.17,341.00 1701.62,367.44 1709.37,376.99 C1719.24,389.45 1738.53,414.99 1747.94,428.06 C1757.18,441.31 1774.95,468.05 1783.46,481.54 C1794.55,499.71 1807.26,522.75 1814.68,536.87 C1821.91,551.16 1835.81,580.26 1842.43,594.94 C1848.79,609.66 1863.59,646.35 1866.29,654.03 C1871.42,669.05 1881.02,699.50 1885.50,714.94 C1889.77,730.51 1897.57,761.73 1901.09,777.32 C1904.35,792.89 1909.85,824.11 1912.11,839.87 C1914.14,855.72 1917.49,887.72 1918.80,903.82 C1919.87,919.85 1921.26,951.75 1921.59,967.61 C1921.67,975.76 1920.31,1015.30 1919.37,1031.30 C1918.18,1047.37 1915.07,1079.46 1913.16,1095.36 C1911.01,1111.17 1906.95,1137.17 1902.75,1158.04 C1899.36,1173.62 1891.81,1204.83 1887.66,1220.44 C1883.29,1235.94 1873.90,1266.53 1868.88,1281.62 C1864.86,1293.25 1851.88,1326.11 1845.64,1340.85 C1839.15,1355.55 1825.46,1384.77 1818.32,1399.15 C1810.99,1413.35 1795.78,1441.24 1787.63,1454.84 C1779.24,1468.36 1761.72,1495.18 1752.59,1508.47 C1743.26,1521.65 1724.12,1547.38 1714.33,1559.95 C1702.16,1575.06 1683.54,1596.25 1672.75,1608.02 C1661.74,1619.67 1639.06,1642.61 1627.49,1653.80 C1615.80,1664.75 1588.04,1689.55 1579.96,1696.16 C1567.55,1706.07 1542.11,1725.43 1529.09,1734.88 C1515.88,1744.18 1489.17,1762.06 1475.70,1770.64 C1455.61,1783.01 1434.61,1794.66 1420.54,1802.12 C1406.29,1809.40 1377.28,1823.40 1362.60,1830.08 C1347.88,1836.50 1318.37,1848.59 1303.56,1854.26 C1288.58,1859.44 1258.20,1869.15 1242.80,1873.68 C1227.26,1878.00 1196.04,1885.93 1180.44,1889.51 C1164.86,1892.84 1141.29,1897.41 1117.95,1900.85 C1102.12,1902.94 1070.16,1906.40 1054.07,1907.78 C1038.02,1908.91 1006.09,1910.42 990.21,1910.81 C979.77,1910.94 942.56,1909.79 926.57,1908.91 C910.52,1907.78 878.39,1904.79 862.47,1902.94 C846.64,1900.85 818.76,1896.60 799.72,1892.84 C784.14,1889.51 752.94,1882.09 737.32,1878.00 C721.78,1873.68 691.12,1864.40 676.00,1859.44 C661.02,1854.26 631.44,1842.68 616.70,1836.50 C601.99,1830.08 572.71,1816.49 558.29,1809.40 C544.05,1802.12 512.97,1785.30 502.42,1778.97 C488.88,1770.64 462.02,1753.24 448.71,1744.18 C435.49,1734.88 409.65,1715.83 397.04,1706.07 C380.41,1692.79 360.58,1675.48 348.78,1664.75 C337.09,1653.80 314.08,1631.21 302.84,1619.67 C291.83,1608.02 265.37,1578.60 260.21,1572.31 C250.26,1559.95 230.82,1534.62 221.33,1521.65 C211.99,1508.47 193.99,1481.80 185.35,1468.36 C176.95,1454.84 161.10,1427.38 153.59,1413.35 C146.26,1399.15 132.17,1370.22 125.43,1355.55 C118.94,1340.85 106.73,1311.35 101.00,1296.55 C98.13,1288.93 85.88,1251.31 81.30,1235.94 C76.92,1220.44 68.87,1189.22 65.23,1173.62 C61.83,1158.04 56.76,1132.21 53.57,1111.17 C51.43,1095.36 47.84,1063.46 46.41,1047.37 C45.21,1031.30 43.57,999.35 43.13,983.45 C42.92,971.15 43.89,935.83 44.71,919.85 C45.78,903.82 48.65,871.67 50.44,855.72 C52.47,839.87 57.23,808.46 60.23,792.89 C63.50,777.32 70.79,746.12 74.82,730.51 C79.08,714.94 88.26,684.21 93.17,669.05 C99.43,650.68 109.69,624.41 115.79,609.66 C122.16,594.94 135.62,565.63 142.67,551.16 C149.90,536.87 167.51,504.07 172.85,495.10 C181.12,481.54 198.40,454.64 207.40,441.31 C216.64,428.06 235.62,402.12 245.34,389.45 C259.99,370.96 275.74,352.83 286.41,341.00 C297.31,329.29 319.79,306.21 331.30,294.91 C342.92,283.84 366.52,262.39 378.50,252.00 C390.81,242.01 416.04,222.49 428.96,212.97 C442.08,203.59 468.71,185.46 482.14,176.76 C495.64,168.31 516.23,155.95 536.99,144.73 C551.15,137.36 579.99,123.17 594.64,116.37 C609.34,109.82 638.82,97.48 653.61,91.69 C663.38,87.99 698.74,76.35 714.07,71.70 C729.54,67.28 760.75,59.10 776.35,55.39 C791.93,51.94 819.59,46.40 838.76,43.42 C854.54,41.22 886.40,37.52 902.47,36.02 C934.63,33.51 974.37,32.37 982.29,32.24 Z" fill="none" stroke="rgb(182, 141, 76)" stroke-width="14.90" stroke-opacity="1.00" stroke-linejoin="round"/>
</g>
<g stroke-linecap="round" id="Layer_1_Copy">
<path d="M1004.31,32.00 C1019.79,32.26 1050.93,33.50 1066.58,34.48 C1082.28,35.70 1113.59,38.86 1129.10,40.78 C1144.51,42.93 1167.68,46.61 1190.26,51.25 C1205.48,54.62 1235.97,62.12 1251.21,66.23 C1266.32,70.56 1296.13,79.83 1310.83,84.79 C1320.46,88.15 1354.23,101.64 1368.62,107.79 C1382.97,114.19 1411.46,127.67 1425.46,134.69 C1439.29,141.89 1463.46,155.11 1479.68,164.92 C1492.87,173.18 1519.03,190.42 1532.00,199.39 C1544.82,208.55 1569.86,227.31 1582.09,236.92 C1594.11,246.67 1617.39,267.19 1628.86,277.78 C1640.22,288.59 1662.55,310.84 1673.42,322.17 C1684.06,333.61 1706.96,359.44 1714.54,368.77 C1724.18,380.94 1743.02,405.88 1752.21,418.65 C1761.24,431.60 1778.59,457.72 1786.91,470.89 C1797.74,488.64 1810.16,511.15 1817.40,524.94 C1824.47,538.90 1838.05,567.32 1844.51,581.67 C1850.72,596.05 1865.18,631.89 1867.82,639.39 C1872.83,654.06 1882.21,683.80 1886.58,698.88 C1890.75,714.09 1898.37,744.59 1901.81,759.81 C1905.00,775.03 1910.37,805.53 1912.58,820.91 C1914.56,836.40 1917.83,867.66 1919.12,883.38 C1920.16,899.05 1921.52,930.21 1921.83,945.70 C1921.92,953.66 1920.59,992.28 1919.67,1007.91 C1918.50,1023.61 1915.46,1054.96 1913.60,1070.49 C1911.51,1085.93 1907.54,1111.33 1903.43,1131.71 C1900.12,1146.93 1892.75,1177.42 1888.69,1192.67 C1884.42,1207.81 1875.25,1237.69 1870.35,1252.43 C1866.43,1263.79 1853.74,1295.89 1847.65,1310.28 C1841.31,1324.64 1827.93,1353.19 1820.96,1367.23 C1813.80,1381.11 1798.94,1408.35 1790.98,1421.63 C1782.78,1434.84 1765.67,1461.04 1756.75,1474.02 C1747.64,1486.89 1728.95,1512.03 1719.38,1524.31 C1707.49,1539.07 1689.30,1559.76 1678.77,1571.26 C1668.01,1582.65 1645.85,1605.05 1634.55,1615.98 C1623.14,1626.68 1596.01,1650.90 1588.12,1657.36 C1576.00,1667.04 1551.16,1685.96 1538.44,1695.19 C1525.53,1704.26 1499.44,1721.73 1486.29,1730.11 C1466.66,1742.19 1446.15,1753.57 1432.40,1760.87 C1418.48,1767.98 1390.14,1781.65 1375.80,1788.17 C1361.43,1794.45 1332.60,1806.26 1318.14,1811.80 C1303.50,1816.85 1273.82,1826.34 1258.78,1830.77 C1243.60,1834.99 1213.10,1842.73 1197.87,1846.23 C1182.65,1849.48 1159.62,1853.94 1136.82,1857.31 C1121.36,1859.34 1090.14,1862.73 1074.42,1864.07 C1058.74,1865.18 1027.56,1866.66 1012.04,1867.03 C1001.85,1867.16 965.50,1866.04 949.88,1865.18 C934.20,1864.07 902.82,1861.15 887.26,1859.34 C871.80,1857.31 844.57,1853.15 825.97,1849.48 C810.75,1846.23 780.28,1838.98 765.02,1834.99 C749.84,1830.77 719.89,1821.70 705.12,1816.85 C690.48,1811.80 661.59,1800.48 647.19,1794.45 C632.82,1788.17 604.23,1774.91 590.14,1767.98 C576.22,1760.87 545.87,1744.43 535.56,1738.25 C522.33,1730.11 496.10,1713.12 483.09,1704.26 C470.18,1695.19 444.94,1676.57 432.62,1667.04 C416.38,1654.07 397.01,1637.16 385.48,1626.68 C374.07,1615.98 351.59,1593.92 340.61,1582.65 C329.85,1571.26 304.01,1542.53 298.96,1536.38 C289.24,1524.31 270.25,1499.56 260.98,1486.89 C251.87,1474.02 234.28,1447.97 225.84,1434.84 C217.64,1421.63 202.16,1394.81 194.82,1381.11 C187.66,1367.23 173.90,1338.98 167.31,1324.64 C160.97,1310.28 149.04,1281.47 143.44,1267.01 C140.64,1259.57 128.68,1222.82 124.20,1207.81 C119.93,1192.67 112.06,1162.17 108.50,1146.93 C105.19,1131.71 100.23,1106.48 97.12,1085.93 C95.02,1070.49 91.52,1039.32 90.12,1023.61 C88.95,1007.91 87.35,976.70 86.91,961.17 C86.72,949.16 87.66,914.65 88.46,899.05 C89.50,883.38 92.31,851.98 94.06,836.40 C96.04,820.91 100.69,790.23 103.63,775.03 C106.81,759.81 113.94,729.34 117.87,714.09 C122.04,698.88 131.00,668.86 135.79,654.06 C141.91,636.12 151.93,610.45 157.90,596.05 C164.11,581.67 177.27,553.03 184.15,538.90 C191.22,524.94 208.42,492.90 213.63,484.14 C221.71,470.89 238.58,444.62 247.38,431.60 C256.41,418.65 274.94,393.31 284.44,380.94 C298.75,362.87 314.13,345.17 324.56,333.61 C335.20,322.17 357.16,299.63 368.40,288.59 C379.76,277.78 402.81,256.82 414.51,246.67 C426.54,236.92 451.18,217.85 463.80,208.55 C476.62,199.39 502.63,181.68 515.75,173.18 C528.94,164.92 549.05,152.85 569.33,141.89 C583.16,134.69 611.33,120.83 625.65,114.19 C640.00,107.79 668.80,95.73 683.25,90.08 C692.79,86.47 727.33,75.09 742.30,70.56 C757.41,66.23 787.90,58.25 803.14,54.62 C818.36,51.25 845.38,45.84 864.11,42.93 C879.52,40.78 910.64,37.17 926.34,35.70 C957.75,33.25 996.57,32.13 1004.31,32.00 Z" fill="none" stroke="rgb(182, 141, 76)" stroke-width="14.56" stroke-opacity="1.00" stroke-linejoin="round"/>
</g>
</svg>
